# xmcd CD database file
#
# Track frame offsets:
#	150
#	15840
#	30730
#	45072
#	56544
#	70510
#	83520
#	101801
#	114392
#	127482
#	140555
#	160810
#	177247
#	194085
#
# Disc length: 2784 seconds
#
# Revision: 2
# Processed by: cddbd v1.5.2PL0 Copyright (c) Steve Scherf et al.
# Submitted via: CDex 1.51
#
DISCID=b40ade0e
DTITLE=Frantisek Nedved - Treti pokus
DYEAR=1900
DGENRE=Folk
TTITLE0=Treti pokus
TTITLE1=Tvou vuni stale znam
TTITLE2=Rejdiva
TTITLE3=Loudava
TTITLE4=Evelyn
TTITLE5=Jsem tvuj dest
TTITLE6=Sydney
TTITLE7=Gruntorad
TTITLE8=Kluk a psik
TTITLE9=Posledni ruze
TTITLE10=Touha
TTITLE11=Az te smrtka vyzve k tanci
TTITLE12=Svatebni
TTITLE13=Floky
EXTD=
EXTT0=
EXTT1=
EXTT2=
EXTT3=
EXTT4=
EXTT5=
EXTT6=
EXTT7=
EXTT8=
EXTT9=
EXTT10=
EXTT11=
EXTT12=
EXTT13=
PLAYORDER=
